<svg width="348" height="78" viewBox="0 0 348 78" fill="none" xmlns="http://www.w3.org/2000/svg">
<path d="M7.45596 62.1436L0 19.9121H11.1447L17.1095 56.2563H11.3801L31.629 19.9121H42.1458L48.2675 56.2563H42.5382L62.63 19.9121H74.1671L50.8575 62.1436H38.771L33.0417 30.9802H36.6519L19.3855 62.1436H7.45596Z" fill="white"/>
<path d="M87.8828 62.7716C83.4877 62.7716 79.6682 61.9866 76.4242 60.4166C73.2325 58.8467 70.7472 56.6488 68.9682 53.8229C67.1892 50.997 66.2998 47.6739 66.2998 43.8537C66.2998 39.1439 67.3462 34.9574 69.4391 31.2942C71.5843 27.5787 74.5144 24.6481 78.2293 22.5025C81.9965 20.3569 86.3131 19.2841 91.1791 19.2841C95.3126 19.2841 98.8705 20.0691 101.853 21.639C104.835 23.1567 107.137 25.3022 108.759 28.0758C110.434 30.797 111.271 34.0678 111.271 37.888C111.271 38.9869 111.192 40.0859 111.035 41.1848C110.931 42.2838 110.774 43.3304 110.565 44.3247H75.6393L76.8951 37.1815H104.835L99.8123 39.3794C100.231 37.0245 100.1 35.0621 99.4199 33.4921C98.7397 31.8698 97.6409 30.6401 96.1236 29.8027C94.6062 28.9131 92.7749 28.4683 90.6297 28.4683C87.9613 28.4683 85.6852 29.1224 83.8016 30.4307C81.9703 31.6867 80.5838 33.4398 79.642 35.69C78.7002 37.9403 78.2293 40.4784 78.2293 43.3043C78.2293 46.5488 79.1188 48.9822 80.8977 50.6045C82.729 52.1744 85.4759 52.9594 89.1385 52.9594C91.2838 52.9594 93.3505 52.6193 95.3387 51.9389C97.327 51.2586 99.0275 50.2905 100.44 49.0345L105.542 57.1198C103.082 59.056 100.309 60.4951 97.2224 61.4371C94.1877 62.3267 91.0745 62.7716 87.8828 62.7716Z" fill="white"/>
<path d="M110.01 62.1436L121.625 3.89869H133.869L128.924 28.4683L125.628 40.7924L123.744 51.625L121.625 62.1436H110.01ZM137.008 62.7716C133.764 62.7716 130.913 62.1959 128.453 61.0446C126.047 59.8933 124.163 58.1402 122.803 55.7853C121.494 53.3781 120.84 50.369 120.84 46.7581C120.84 42.9379 121.311 39.3532 122.253 36.004C123.195 32.6548 124.582 29.7504 126.413 27.2908C128.244 24.7789 130.468 22.8165 133.084 21.4036C135.752 19.9906 138.761 19.2841 142.11 19.2841C145.406 19.2841 148.441 20.0429 151.214 21.5606C153.987 23.0258 156.21 25.1714 157.885 27.9973C159.559 30.7709 160.396 34.1724 160.396 38.2019C160.396 41.7081 159.795 44.9789 158.591 48.0141C157.388 50.997 155.713 53.5874 153.568 55.7853C151.475 57.9832 149.016 59.7102 146.191 60.9661C143.365 62.1697 140.304 62.7716 137.008 62.7716ZM135.595 52.6454C138.055 52.6454 140.2 52.0698 142.031 50.9185C143.862 49.7149 145.301 48.0926 146.348 46.0517C147.446 43.9584 147.996 41.525 147.996 38.7514C147.996 35.8732 147.159 33.5968 145.484 31.9222C143.81 30.2476 141.429 29.4103 138.342 29.4103C135.988 29.4103 133.869 30.0121 131.985 31.2157C130.102 32.367 128.637 33.9893 127.59 36.0825C126.544 38.1234 126.02 40.5307 126.02 43.3043C126.02 46.1825 126.858 48.4589 128.532 50.1335C130.206 51.8081 132.561 52.6454 135.595 52.6454Z" fill="white"/>
<path d="M168.384 62.1436L160.928 19.9121H172.073L178.038 56.2563H172.309L192.557 19.9121H203.074L209.196 56.2563H203.467L223.559 19.9121H235.096L211.786 62.1436H199.699L193.97 30.9802H197.58L180.314 62.1436H168.384Z" fill="white"/>
<path d="M227.515 62.1436L235.912 19.9121H248.077L239.68 62.1436H227.515ZM244.075 14.0248C241.929 14.0248 240.203 13.423 238.895 12.2194C237.587 10.9634 236.933 9.44582 236.933 7.66656C236.933 5.5733 237.665 3.84636 239.13 2.48574C240.648 1.07279 242.61 0.366318 245.016 0.366318C247.162 0.366318 248.888 0.96813 250.196 2.17175C251.557 3.32305 252.237 4.76216 252.237 6.4891C252.237 8.73935 251.478 10.5709 249.961 11.9839C248.496 13.3445 246.534 14.0248 244.075 14.0248Z" fill="white"/>
<path d="M279.299 19.2841C282.909 19.2841 285.97 20.0429 288.481 21.5606C290.993 23.0258 292.772 25.1976 293.818 28.0758C294.864 30.954 294.969 34.5126 294.132 38.7514L289.423 62.1436H277.179L281.732 39.5364C282.359 36.4488 282.098 34.0678 280.947 32.3932C279.848 30.7186 277.807 29.8812 274.825 29.8812C271.738 29.8812 269.148 30.7709 267.055 32.5502C265.014 34.3294 263.602 37.0507 262.817 40.7139L258.579 62.1436H246.335L254.733 19.9121H266.349L263.916 31.8437L262.189 28.2328C264.23 25.1453 266.741 22.895 269.724 21.4821C272.758 20.0168 275.95 19.2841 279.299 19.2841Z" fill="white"/>
<path d="M314.017 78C309.935 78 306.168 77.529 302.715 76.587C299.314 75.6451 296.384 74.2583 293.925 72.4267L299.732 63.5565C301.407 64.9171 303.552 66.0161 306.168 66.8534C308.837 67.6907 311.636 68.1094 314.566 68.1094C318.804 68.1094 321.97 67.1936 324.062 65.362C326.208 63.5304 327.647 60.8091 328.379 57.1983L329.87 49.584L332.696 39.6934L334.579 29.0178L336.306 19.9121H348L341.015 55.0788C339.393 63.1902 336.306 69.0252 331.754 72.5837C327.254 76.1946 321.342 78 314.017 78ZM315.822 60.1026C312.368 60.1026 309.229 59.3962 306.404 57.9832C303.578 56.5703 301.328 54.5555 299.654 51.9389C297.98 49.27 297.143 46.0778 297.143 42.3623C297.143 39.1177 297.718 36.1087 298.869 33.3351C300.073 30.5616 301.721 28.1281 303.814 26.0349C305.959 23.8893 308.444 22.2409 311.27 21.0896C314.147 19.8859 317.287 19.2841 320.688 19.2841C323.775 19.2841 326.574 19.8598 329.085 21.0111C331.597 22.1624 333.533 24.0201 334.893 26.5844C336.306 29.1486 336.829 32.5763 336.463 36.8675C336.149 41.525 335.129 45.6068 333.402 49.113C331.675 52.5669 329.321 55.262 326.339 57.1983C323.408 59.1345 319.903 60.1026 315.822 60.1026ZM319.118 50.055C321.525 50.055 323.644 49.5317 325.475 48.4851C327.306 47.4384 328.745 45.9993 329.792 44.1677C330.838 42.2838 331.361 40.1382 331.361 37.731C331.361 35.1667 330.524 33.152 328.85 31.6867C327.176 30.1691 324.847 29.4103 321.865 29.4103C319.458 29.4103 317.313 29.9336 315.429 30.9802C313.598 32.0268 312.133 33.4921 311.034 35.376C309.988 37.2076 309.465 39.3271 309.465 41.7343C309.465 44.2986 310.328 46.3395 312.054 47.8571C313.781 49.3224 316.136 50.055 319.118 50.055Z" fill="white"/>
<path d="M252.832 8.17679C252.832 12.6927 249.171 16.3536 244.656 16.3536C240.141 16.3536 236.481 12.6927 236.481 8.17679C236.481 3.66087 240.141 0 244.656 0C249.171 0 252.832 3.66087 252.832 8.17679Z" fill="url(#paint0_linear_116_93)"/>
<defs>
<linearGradient id="paint0_linear_116_93" x1="244.656" y1="0" x2="244.656" y2="16.3536" gradientUnits="userSpaceOnUse">
<stop stop-color="#EA00FF"/>
<stop offset="1" stop-color="#9500FF"/>
</linearGradient>
</defs>
</svg>
