<svg width="187" height="45" viewBox="0 0 187 45" fill="none" xmlns="http://www.w3.org/2000/svg">
<path d="M5.39238 35L0.397383 10.52H6.38238L9.93738 29.105L7.73238 29.06L17.0924 10.52H22.3124L26.1824 29.06L24.0674 29.105L32.8424 10.52H39.1424L27.3074 35H22.0424L18.1724 15.605H20.2424L10.6124 35H5.39238ZM48.9095 35.54C46.5095 35.54 44.4095 35.015 42.6095 33.965C40.8395 32.915 39.4595 31.49 38.4695 29.69C37.5095 27.86 37.0295 25.82 37.0295 23.57C37.0295 21.71 37.3445 19.97 37.9745 18.35C38.6345 16.7 39.5495 15.245 40.7195 13.985C41.9195 12.725 43.2995 11.75 44.8595 11.06C46.4195 10.34 48.1295 9.98 49.9895 9.98C52.3895 9.98 54.4295 10.475 56.1095 11.465C57.7895 12.455 59.0645 13.79 59.9345 15.47C60.8045 17.12 61.2395 18.98 61.2395 21.05C61.2395 21.59 61.1945 22.145 61.1045 22.715C61.0145 23.285 60.8945 23.855 60.7445 24.425H41.8445L42.1595 19.925H57.6845L54.7595 21.95C55.1495 20.6 55.1795 19.4 54.8495 18.35C54.5495 17.27 53.9645 16.415 53.0945 15.785C52.2545 15.155 51.2045 14.84 49.9445 14.84C48.2945 14.84 46.9595 15.245 45.9395 16.055C44.9495 16.865 44.2145 17.975 43.7345 19.385C43.2845 20.765 43.0595 22.31 43.0595 24.02C43.0595 25.34 43.2995 26.48 43.7795 27.44C44.2895 28.4 44.9945 29.135 45.8945 29.645C46.7945 30.125 47.8445 30.365 49.0445 30.365C50.3945 30.365 51.5795 30.065 52.5995 29.465C53.6195 28.865 54.4295 28.1 55.0295 27.17L59.7095 29.6C59.1395 30.77 58.3145 31.805 57.2345 32.705C56.1845 33.605 54.9395 34.31 53.4995 34.82C52.0895 35.3 50.5595 35.54 48.9095 35.54ZM75.8321 35.54C73.9121 35.54 72.1721 35.18 70.6121 34.46C69.0821 33.71 67.9121 32.675 67.1021 31.355L67.8671 30.275L67.2371 35H61.6121L66.3821 0.934999H72.3221L70.3421 15.38L68.7221 14.075C69.6821 12.755 70.8971 11.75 72.3671 11.06C73.8671 10.34 75.5171 9.98 77.3171 9.98C79.5971 9.98 81.6071 10.52 83.3472 11.6C85.0871 12.65 86.4521 14.075 87.4421 15.875C88.4621 17.675 88.9722 19.7 88.9722 21.95C88.9722 23.81 88.6272 25.565 87.9372 27.215C87.2771 28.865 86.3471 30.32 85.1471 31.58C83.9471 32.81 82.5521 33.785 80.9621 34.505C79.3721 35.195 77.6621 35.54 75.8321 35.54ZM75.2471 30.14C76.7171 30.14 78.0221 29.78 79.1621 29.06C80.3021 28.31 81.1871 27.32 81.8171 26.09C82.4771 24.86 82.8071 23.495 82.8071 21.995C82.8071 20.705 82.5371 19.565 81.9971 18.575C81.4871 17.585 80.7671 16.805 79.8371 16.235C78.9071 15.665 77.7971 15.38 76.5071 15.38C75.0671 15.38 73.7771 15.755 72.6371 16.505C71.5271 17.225 70.6571 18.2 70.0271 19.43C69.3971 20.66 69.0821 22.025 69.0821 23.525C69.0821 24.815 69.3371 25.97 69.8471 26.99C70.3871 27.98 71.1221 28.76 72.0521 29.33C72.9821 29.87 74.0471 30.14 75.2471 30.14ZM94.4871 35L89.4921 10.52H95.4771L99.0321 29.105L96.8271 29.06L106.187 10.52H111.407L115.277 29.06L113.162 29.105L121.937 10.52H128.237L116.402 35H111.137L107.267 15.605H109.337L99.7071 35H94.4871ZM125.799 35L129.219 10.52H135.159L131.739 35H125.799ZM129.579 7.775L130.479 1.475H136.419L135.564 7.775H129.579ZM134.974 35L138.394 10.52H143.929L143.299 15.335L142.939 14.345C143.719 12.845 144.784 11.75 146.134 11.06C147.484 10.34 148.984 9.98 150.634 9.98C152.494 9.98 154.069 10.415 155.359 11.285C156.679 12.155 157.639 13.34 158.239 14.84C158.869 16.31 159.049 17.975 158.779 19.835L156.664 35H150.769L152.794 20.51C153.004 18.95 152.719 17.705 151.939 16.775C151.159 15.845 150.049 15.38 148.609 15.38C147.649 15.38 146.749 15.605 145.909 16.055C145.099 16.475 144.424 17.075 143.884 17.855C143.374 18.635 143.029 19.565 142.849 20.645L140.869 35H134.974ZM170.334 44.9C168.474 44.9 166.779 44.585 165.249 43.955C163.719 43.325 162.444 42.455 161.424 41.345C160.434 40.265 159.789 39.005 159.489 37.565L165.069 35.855C165.279 36.995 165.879 37.88 166.869 38.51C167.859 39.17 169.164 39.5 170.784 39.5C171.954 39.5 173.019 39.275 173.979 38.825C174.939 38.375 175.734 37.745 176.364 36.935C176.994 36.125 177.369 35.18 177.489 34.1L178.344 28.205L179.829 29.645C178.899 31.115 177.714 32.21 176.274 32.93C174.864 33.65 173.259 34.01 171.459 34.01C169.299 34.01 167.364 33.53 165.654 32.57C163.974 31.61 162.654 30.29 161.694 28.61C160.734 26.9 160.254 24.95 160.254 22.76C160.254 20.93 160.569 19.235 161.199 17.675C161.859 16.115 162.759 14.765 163.899 13.625C165.039 12.485 166.374 11.6 167.904 10.97C169.434 10.31 171.084 9.98 172.854 9.98C174.774 9.98 176.499 10.37 178.029 11.15C179.559 11.93 180.744 13.055 181.584 14.525L180.414 15.92L181.134 10.52H186.759L183.474 34.28C183.204 36.35 182.454 38.18 181.224 39.77C180.024 41.36 178.479 42.605 176.589 43.505C174.729 44.435 172.644 44.9 170.334 44.9ZM172.269 28.565C173.619 28.565 174.819 28.235 175.869 27.575C176.949 26.915 177.774 26.045 178.344 24.965C178.944 23.885 179.244 22.7 179.244 21.41C179.244 20.24 179.004 19.205 178.524 18.305C178.044 17.405 177.369 16.7 176.499 16.19C175.659 15.65 174.639 15.38 173.439 15.38C172.119 15.38 170.919 15.71 169.839 16.37C168.789 17 167.949 17.855 167.319 18.935C166.689 20.015 166.374 21.245 166.374 22.625C166.374 23.765 166.614 24.785 167.094 25.685C167.604 26.585 168.294 27.29 169.164 27.8C170.064 28.31 171.099 28.565 172.269 28.565Z" fill="white"/>
</svg>
