<svg width="1280" height="1257" viewBox="0 0 1280 1257" fill="none" xmlns="http://www.w3.org/2000/svg">
<path d="M254.921 314L255.321 311.2H257.981L257.561 314H254.921Z" fill="white" fill-opacity="0.5"/>
<path d="M685.921 550L686.321 547.2H688.981L688.561 550H685.921Z" fill="white" fill-opacity="0.5"/>
<path d="M924.921 215L925.321 212.2H927.981L927.561 215H924.921Z" fill="white" fill-opacity="0.5"/>
<path d="M19.9207 496L20.3206 493.2H22.9807L22.5607 496H19.9207Z" fill="white" fill-opacity="0.5"/>
<path d="M374.921 135L375.321 132.2H377.981L377.561 135H374.921Z" fill="white" fill-opacity="0.5"/>
<path d="M-110.079 44L-109.679 41.2H-107.019L-107.439 44H-110.079Z" fill="white" fill-opacity="0.5"/>
<path d="M-13.0793 786L-12.6794 783.2H-10.0193L-10.4393 786H-13.0793Z" fill="white" fill-opacity="0.5"/>
<path d="M655.921 881L656.321 878.2H658.981L658.561 881H655.921Z" fill="white" fill-opacity="0.5"/>
<path d="M960.306 819.542L963.081 818.994L963.96 821.505L961.179 822.034L960.306 819.542Z" fill="white" fill-opacity="0.5"/>
<path d="M300.921 445L301.321 442.2H303.981L303.561 445H300.921Z" fill="white" fill-opacity="0.5"/>
<path d="M731.921 681L732.321 678.2H734.981L734.561 681H731.921Z" fill="white" fill-opacity="0.5"/>
<path d="M970.921 346L971.321 343.2H973.981L973.561 346H970.921Z" fill="white" fill-opacity="0.5"/>
<path d="M65.9207 627L66.3206 624.2H68.9807L68.5607 627H65.9207Z" fill="white" fill-opacity="0.5"/>
<path d="M420.921 266L421.321 263.2H423.981L423.561 266H420.921Z" fill="white" fill-opacity="0.5"/>
<path d="M-64.0793 175L-63.6794 172.2H-61.0193L-61.4393 175H-64.0793Z" fill="white" fill-opacity="0.5"/>
<path d="M32.9207 917L33.3206 914.2H35.9807L35.5607 917H32.9207Z" fill="white" fill-opacity="0.5"/>
<path d="M701.921 1012L702.321 1009.2H704.981L704.561 1012H701.921Z" fill="white" fill-opacity="0.5"/>
<path d="M851.863 906.243L854.638 905.695L855.517 908.206L852.735 908.734L851.863 906.243Z" fill="white" fill-opacity="0.5"/>
<path d="M366.921 226L367.321 223.2H369.981L369.561 226H366.921Z" fill="white" fill-opacity="0.5"/>
<path d="M797.921 462L798.321 459.2H800.981L800.561 462H797.921Z" fill="white" fill-opacity="0.5"/>
<path d="M1036.92 127L1037.32 124.2H1039.98L1039.56 127H1036.92Z" fill="white" fill-opacity="0.5"/>
<path d="M131.921 408L132.321 405.2H134.981L134.561 408H131.921Z" fill="white" fill-opacity="0.5"/>
<path d="M486.921 47L487.321 44.2H489.981L489.561 47H486.921Z" fill="white" fill-opacity="0.5"/>
<path d="M1.92065 -44L2.32065 -46.8H4.98065L4.56065 -44H1.92065Z" fill="white" fill-opacity="0.5"/>
<path d="M98.9207 698L99.3206 695.2H101.981L101.561 698H98.9207Z" fill="white" fill-opacity="0.5"/>
<path d="M767.921 793L768.321 790.2H770.981L770.561 793H767.921Z" fill="white" fill-opacity="0.5"/>
<path d="M1080.37 896.175L1083.15 895.628L1084.02 898.138L1081.24 898.667L1080.37 896.175Z" fill="white" fill-opacity="0.5"/>
<path d="M141.921 226L142.321 223.2H144.981L144.561 226H141.921Z" fill="white" fill-opacity="0.5"/>
<path d="M572.921 462L573.321 459.2H575.981L575.561 462H572.921Z" fill="white" fill-opacity="0.5"/>
<path d="M811.921 127L812.321 124.2H814.981L814.561 127H811.921Z" fill="white" fill-opacity="0.5"/>
<path d="M-93.0793 408L-92.6794 405.2H-90.0193L-90.4393 408H-93.0793Z" fill="white" fill-opacity="0.5"/>
<path d="M261.921 47L262.321 44.2H264.981L264.561 47H261.921Z" fill="white" fill-opacity="0.5"/>
<path d="M-223.079 -44L-222.679 -46.8H-220.019L-220.439 -44H-223.079Z" fill="white" fill-opacity="0.5"/>
<path d="M-126.079 698L-125.679 695.2H-123.019L-123.439 698H-126.079Z" fill="white" fill-opacity="0.5"/>
<path d="M542.921 793L543.321 790.2H545.981L545.561 793H542.921Z" fill="white" fill-opacity="0.5"/>
<path d="M1006.03 683.812L1008.8 683.264L1009.68 685.775L1006.9 686.304L1006.03 683.812Z" fill="white" fill-opacity="0.5"/>
<path d="M254.921 540L255.321 537.2H257.981L257.561 540H254.921Z" fill="white" fill-opacity="0.5"/>
<path d="M685.921 776L686.321 773.2H688.981L688.561 776H685.921Z" fill="white" fill-opacity="0.5"/>
<path d="M924.921 441L925.321 438.2H927.981L927.561 441H924.921Z" fill="white" fill-opacity="0.5"/>
<path d="M19.9207 722L20.3206 719.2H22.9807L22.5607 722H19.9207Z" fill="white" fill-opacity="0.5"/>
<path d="M374.921 361L375.321 358.2H377.981L377.561 361H374.921Z" fill="white" fill-opacity="0.5"/>
<path d="M-110.079 270L-109.679 267.2H-107.019L-107.439 270H-110.079Z" fill="white" fill-opacity="0.5"/>
<path d="M-13.0793 1012L-12.6794 1009.2H-10.0193L-10.4393 1012H-13.0793Z" fill="white" fill-opacity="0.5"/>
<path d="M655.921 1107L656.321 1104.2H658.981L658.561 1107H655.921Z" fill="white" fill-opacity="0.5"/>
<path d="M746.999 894.216L749.774 893.668L750.653 896.179L747.872 896.707L746.999 894.216Z" fill="white" fill-opacity="0.5"/>
<path d="M731.921 241L732.321 238.2H734.981L734.561 241H731.921Z" fill="white" fill-opacity="0.5"/>
<path d="M1162.92 477L1163.32 474.2H1165.98L1165.56 477H1162.92Z" fill="white" fill-opacity="0.5"/>
<path d="M1401.92 142L1402.32 139.2H1404.98L1404.56 142H1401.92Z" fill="white" fill-opacity="0.5"/>
<path d="M496.921 423L497.321 420.2H499.981L499.561 423H496.921Z" fill="white" fill-opacity="0.5"/>
<path d="M851.921 62L852.321 59.2H854.981L854.561 62H851.921Z" fill="white" fill-opacity="0.5"/>
<path d="M366.921 -29L367.321 -31.8H369.981L369.561 -29H366.921Z" fill="white" fill-opacity="0.5"/>
<path d="M463.921 713L464.321 710.2H466.981L466.561 713H463.921Z" fill="white" fill-opacity="0.5"/>
<path d="M1132.92 808L1133.32 805.2H1135.98L1135.56 808H1132.92Z" fill="white" fill-opacity="0.5"/>
<path d="M1186.81 1245.63L1189.59 1245.08L1190.47 1247.59L1187.69 1248.12L1186.81 1245.63Z" fill="white" fill-opacity="0.5"/>
<path d="M685.921 398L686.321 395.2H688.981L688.561 398H685.921Z" fill="white" fill-opacity="0.5"/>
<path d="M1116.92 634L1117.32 631.2H1119.98L1119.56 634H1116.92Z" fill="white" fill-opacity="0.5"/>
<path d="M1355.92 299L1356.32 296.2H1358.98L1358.56 299H1355.92Z" fill="white" fill-opacity="0.5"/>
<path d="M450.921 580L451.321 577.2H453.981L453.561 580H450.921Z" fill="white" fill-opacity="0.5"/>
<path d="M805.921 219L806.321 216.2H808.981L808.561 219H805.921Z" fill="white" fill-opacity="0.5"/>
<path d="M320.921 128L321.321 125.2H323.981L323.561 128H320.921Z" fill="white" fill-opacity="0.5"/>
<path d="M417.921 870L418.321 867.2H420.981L420.561 870H417.921Z" fill="white" fill-opacity="0.5"/>
<path d="M1086.92 965L1087.32 962.2H1089.98L1089.56 965H1086.92Z" fill="white" fill-opacity="0.5"/>
<path d="M1023.43 1254.09L1026.21 1253.54L1027.09 1256.05L1024.3 1256.58L1023.43 1254.09Z" fill="white" fill-opacity="0.5"/>
</svg>
