<svg width="226" height="251" viewBox="0 0 226 251" fill="none" xmlns="http://www.w3.org/2000/svg">
<path d="M200.344 0.921143H25.3438C18.7194 0.940927 12.3721 3.5812 7.68794 8.26533C3.00381 12.9495 0.363534 19.2968 0.34375 25.9211L0.34375 250.921H225.344V25.9211C225.324 19.2968 222.684 12.9495 218 8.26533C213.315 3.5812 206.968 0.940927 200.344 0.921143ZM100.344 225.921V175.921H125.344V225.921H100.344ZM200.344 225.921H150.344V163.421C150.444 161.753 150.189 160.084 149.597 158.522C149.004 156.96 148.087 155.541 146.905 154.36C145.724 153.178 144.305 152.261 142.743 151.668C141.181 151.076 139.511 150.821 137.844 150.921H87.8438C86.1761 150.821 84.5061 151.076 82.9441 151.668C81.3821 152.261 79.9636 153.178 78.7823 154.36C77.6009 155.541 76.6836 156.96 76.0909 158.522C75.4982 160.084 75.2435 161.753 75.3438 163.421V225.921H25.3438V25.9211H200.344V225.921ZM100.344 75.9211H75.3438V50.9211H100.344V75.9211ZM150.344 75.9211H125.344V50.9211H150.344V75.9211ZM100.344 125.921H75.3438V100.921H100.344V125.921ZM150.344 125.921H125.344V100.921H150.344V125.921Z" fill="white"/>
</svg>
