<svg width="338" height="374" viewBox="0 0 338 374" fill="none" xmlns="http://www.w3.org/2000/svg">
<path d="M169.361 70.306C188.778 70.306 204.511 54.5605 204.511 35.1617C204.511 15.7331 188.778 0 169.361 0C149.932 0 134.205 15.7331 134.205 35.1617C134.205 54.5605 149.933 70.306 169.361 70.306Z" fill="white"/>
<path d="M199.816 86.9613H168.998H138.18C121.147 86.9613 102.617 105.492 102.617 122.531V240.68C102.617 249.199 109.516 256.104 118.035 256.104C122.222 256.104 118.035 256.104 128.793 256.104L134.661 356.864C134.661 365.93 142.008 373.278 151.074 373.278C154.897 373.278 161.954 373.278 168.998 373.278C176.049 373.278 183.105 373.278 186.928 373.278C195.993 373.278 203.341 365.93 203.341 356.864L209.203 256.104C219.966 256.104 215.774 256.104 219.966 256.104C228.479 256.104 235.385 249.199 235.385 240.68V122.531C235.385 105.492 216.853 86.9613 199.816 86.9613Z" fill="white"/>
<path d="M58.2867 108.69C75.246 108.69 88.9837 94.9474 88.9837 77.9939C88.9837 61.0345 75.246 47.2917 58.2867 47.2917C41.3214 47.2917 27.5903 61.0352 27.5903 77.9939C27.5903 94.9466 41.3214 108.69 58.2867 108.69Z" fill="white"/>
<path d="M280.34 108.69C297.305 108.69 311.036 94.9474 311.036 77.9939C311.036 61.0345 297.305 47.2917 280.34 47.2917C263.387 47.2917 249.644 61.0352 249.644 77.9939C249.644 94.9466 263.387 108.69 280.34 108.69Z" fill="white"/>
<path d="M82.4297 123.228H57.9712H31.0543C16.1829 123.228 0 139.423 0 154.295V257.476C0 264.921 6.02495 270.946 13.4643 270.946C17.1227 270.946 13.4643 270.946 22.8575 270.946L27.9784 358.946C27.9784 366.858 34.3978 373.278 42.3161 373.278C45.653 373.278 51.8113 373.278 57.9712 373.278C64.1237 373.278 70.2886 373.278 73.6255 373.278C81.5439 373.278 87.9632 366.858 87.9632 358.946L93.0783 270.946V265.952C86.5314 259.496 82.4297 250.582 82.4297 240.68V123.228Z" fill="white"/>
<path d="M306.946 123.228H280.023H255.571V240.68C255.571 250.582 251.469 259.496 244.915 265.952V270.946L250.031 358.946C250.031 366.858 256.457 373.278 264.375 373.278C267.712 373.278 273.871 373.278 280.023 373.278C286.188 373.278 292.347 373.278 295.684 373.278C303.603 373.278 310.017 366.858 310.017 358.946L315.143 270.946C324.536 270.946 320.877 270.946 324.536 270.946C331.975 270.946 338 264.92 338 257.476V154.295C338 139.423 321.818 123.228 306.946 123.228Z" fill="white"/>
</svg>
